<svg width="640" height="103" viewBox="0 0 640 103" fill="none" xmlns="http://www.w3.org/2000/svg">
<path d="M34.7169 82.6168C29.0189 82.6168 23.8495 81.2951 19.2089 78.6517C14.5682 75.9495 10.8968 72.2193 8.1946 67.4612C5.55118 62.6443 4.22947 57.2106 4.22947 51.1601C4.22947 45.1096 5.55118 39.7053 8.1946 34.9471C10.8968 30.1302 14.5682 26.4001 19.2089 23.7566C23.8495 21.0545 29.0189 19.7034 34.7169 19.7034C40.4737 19.7034 45.6724 21.0545 50.3131 23.7566C54.9538 26.4001 58.5958 30.1302 61.2392 34.9471C63.8827 39.7053 65.2044 45.1096 65.2044 51.1601C65.2044 57.2106 63.8827 62.6443 61.2392 67.4612C58.5958 72.2193 54.9538 75.9495 50.3131 78.6517C45.6724 81.2951 40.4737 82.6168 34.7169 82.6168ZM34.7169 77.2418C39.2988 77.2418 43.4108 76.1845 47.0529 74.0697C50.6949 71.955 53.5733 68.9298 55.6881 64.994C57.8028 60.9995 58.8602 56.3882 58.8602 51.1601C58.8602 45.932 57.8028 41.3501 55.6881 37.4143C53.5733 33.4786 50.6949 30.4533 47.0529 28.3386C43.4108 26.2238 39.2988 25.1665 34.7169 25.1665C30.135 25.1665 26.023 26.2238 22.381 28.3386C18.7389 30.4533 15.8605 33.4786 13.7458 37.4143C11.631 41.3501 10.5737 45.932 10.5737 51.1601C10.5737 56.3882 11.631 60.9995 13.7458 64.994C15.8605 68.9298 18.7389 71.955 22.381 74.0697C26.023 76.1845 30.135 77.2418 34.7169 77.2418ZM121.201 82L105.957 56.2707H94.5906V82H88.4226V20.4083H106.927C113.799 20.4083 118.998 22.0531 122.523 25.3427C126.106 28.6323 127.898 32.9499 127.898 38.2955C127.898 42.7599 126.605 46.5782 124.021 49.7503C121.495 52.8636 117.735 54.8903 112.742 55.8301L128.603 82H121.201ZM94.5906 51.2482H107.015C111.832 51.2482 115.444 50.0734 117.853 47.7236C120.32 45.3739 121.554 42.2312 121.554 38.2955C121.554 34.2422 120.379 31.1288 118.029 28.9554C115.679 26.7231 111.978 25.607 106.927 25.607H94.5906V51.2482ZM170.31 20.4083C177.124 20.4083 182.969 21.6419 187.844 24.1091C192.72 26.5763 196.45 30.1302 199.035 34.7709C201.62 39.4116 202.912 44.9334 202.912 51.3363C202.912 57.6805 201.62 63.173 199.035 67.8136C196.45 72.3956 192.72 75.9201 187.844 78.3873C182.969 80.7958 177.124 82 170.31 82H152.07V20.4083H170.31ZM170.31 76.8894C178.886 76.8894 185.407 74.6572 189.871 70.1927C194.394 65.6695 196.656 59.3841 196.656 51.3363C196.656 43.2298 194.394 36.915 189.871 32.3918C185.407 27.8099 178.886 25.5189 170.31 25.5189H158.238V76.8894H170.31ZM232.383 25.4308V48.4286H255.734V53.5392H232.383V76.8894H258.377V82H226.216V20.3202H258.377V25.4308H232.383ZM315.241 82L299.997 56.2707H288.631V82H282.463V20.4083H300.967C307.84 20.4083 313.038 22.0531 316.563 25.3427C320.146 28.6323 321.938 32.9499 321.938 38.2955C321.938 42.7599 320.645 46.5782 318.061 49.7503C315.535 52.8636 311.775 54.8903 306.782 55.8301L322.643 82H315.241ZM288.631 51.2482H301.055C305.872 51.2482 309.484 50.0734 311.893 47.7236C314.36 45.3739 315.594 42.2312 315.594 38.2955C315.594 34.2422 314.419 31.1288 312.069 28.9554C309.719 26.7231 306.019 25.607 300.967 25.607H288.631V51.2482ZM374.923 50.1908C378.389 50.837 381.326 52.5993 383.735 55.4777C386.143 58.3561 387.348 61.7044 387.348 65.5227C387.348 68.636 386.555 71.4557 384.968 73.9816C383.441 76.4488 381.18 78.4167 378.184 79.8853C375.188 81.2951 371.605 82 367.434 82H346.11V20.4083H366.817C373.044 20.4083 377.773 21.8475 381.003 24.7259C384.293 27.6043 385.938 31.3344 385.938 35.9164C385.938 39.7346 384.91 42.848 382.854 45.2565C380.798 47.6062 378.154 49.251 374.923 50.1908ZM352.278 47.6355H366.641C370.812 47.6355 374.013 46.6663 376.245 44.7278C378.536 42.7305 379.682 39.999 379.682 36.5332C379.682 33.1261 378.536 30.4533 376.245 28.5148C374.013 26.5763 370.723 25.607 366.376 25.607H352.278V47.6355ZM366.993 76.8013C371.458 76.8013 374.923 75.7439 377.391 73.6292C379.917 71.5144 381.18 68.6067 381.18 64.9059C381.18 61.2051 379.858 58.268 377.214 56.0945C374.63 53.8623 371.135 52.7461 366.729 52.7461H352.278V76.8013H366.993Z" fill="#000563"/>
<path d="M431.258 34.9955V19.3751L403.264 35.4867L431.258 34.9955Z" fill="#000563"/>
<path d="M431.258 19.3751V34.9955L459.253 35.4867L431.258 19.3751Z" fill="#000563"/>
<path d="M431.258 34.9955L403.264 35.4867L416.965 43.2478L431.258 34.9955Z" fill="#000563"/>
<path d="M459.253 35.4867L431.258 34.9955L445.551 43.2478L459.253 35.4867Z" fill="#000563"/>
<path d="M416.965 43.2478L403.264 35.4867L416.965 59.7523V43.2478Z" fill="#000563"/>
<path d="M403.264 67.6116L416.965 59.7523L403.264 35.4867V67.6116Z" fill="#000563"/>
<path d="M431.258 83.6249L416.965 59.7523L403.264 67.6116L431.258 83.6249Z" fill="#000563"/>
<path d="M431.258 83.6249V67.9063L416.965 59.7523L431.258 83.6249Z" fill="#000563"/>
<path d="M431.258 83.6249L445.551 59.7523L431.258 67.9063V83.6249Z" fill="#000563"/>
<path d="M445.551 59.7523L431.258 83.6249L452.402 71.6886L445.551 59.7523Z" fill="#000563"/>
<path d="M459.253 83.6249L445.551 43.2478V59.7523L452.402 71.6886L459.253 83.6249Z" fill="#000563"/>
<path d="M459.253 50.2229L445.551 43.2478L459.253 83.6249V50.2229Z" fill="#000563"/>
<path d="M459.253 35.4867L445.551 43.2478L459.253 50.2229V35.4867Z" fill="#000563"/>
<path d="M431.258 67.9063V51.5L416.965 43.2478V59.7523L431.258 67.9063Z" fill="#E1E1E3"/>
<path d="M523.373 20.4083V82H517.205V53.1867H483.81V82H477.642V20.4083H483.81V48.0761H517.205V20.4083H523.373ZM595.814 82H589.646L555.546 30.189V82H549.378V20.4083H555.546L589.646 72.1312V20.4083H595.814V82Z" fill="#000563"/>
<path d="M623.081 8.1684V9.23311H619.52V21H618.235V9.23311H614.655V8.1684H623.081ZM637.785 8.33361V21H636.5V10.8852L631.985 21H631.048L626.533 10.922V21H625.248V8.33361H626.606L631.507 19.3111L636.409 8.33361H637.785Z" fill="#000563"/>
</svg>
